# xmcd CD database file
#
# Track frame offsets:
#	150
#	10410
#	21247
#	32597
#	45422
#	56072
#	64572
#	73960
#	85020
#	96135
#	109272
#	121825
#	133110
#	144902
#	155510
#	167572
#
# Disc length: 2372 seconds
#
# Revision: 3
# Processed by: cddbd v1.5.2PL0 Copyright (c) Steve Scherf et al.
# Submitted via: CDex 1.51
#
DISCID=d2094210
DTITLE=Susan Raye - 16 Greatest Hits
DYEAR=1999
DGENRE=Country
TTITLE0=Put A Little Love In Your Heart
TTITLE1=One Night Stand
TTITLE2=Willy Jones
TTITLE3=L.A. International Airport
TTITLE4=Pitty, Pitty, Patter
TTITLE5=(I've Got) A Happy Heart
TTITLE6=A Song To Sing
TTITLE7=My Heart Has A Mind Of Its Own
TTITLE8=Wheel Of Fortune
TTITLE9=Love Sure Feels Good In My Heart
TTITLE10=Cheating Game
TTITLE11=Plastic Trains, Paper Planes
TTITLE12=When You Get Back From Nashville
TTITLE13=Stop The World (And Let Me Off)
TTITLE14=You Can Sure See It From Here
TTITLE15=Whatcha Gonna Do With A Dog Like That
EXTD=YEAR: 1999
EXTT0=
EXTT1=
EXTT2=
EXTT3=
EXTT4=
EXTT5=
EXTT6=
EXTT7=
EXTT8=
EXTT9=
EXTT10=
EXTT11=
EXTT12=
EXTT13=
EXTT14=
EXTT15=
PLAYORDER=
